<svg width="512" height="512" viewBox="0 0 512 512" fill="none" xmlns="http://www.w3.org/2000/svg">
<g id="default-image">
<rect width="512" height="512" fill="#060708"/>
<path id="Star" d="M244.311 120.507C250.635 113.741 261.365 113.741 267.689 120.507L293.514 148.138C296.668 151.513 301.127 153.36 305.744 153.204L343.542 151.926C352.799 151.614 360.386 159.201 360.074 168.458L358.796 206.256C358.64 210.873 360.487 215.332 363.862 218.486L391.493 244.311C398.259 250.635 398.259 261.365 391.493 267.689L363.862 293.514C360.487 296.668 358.64 301.127 358.796 305.744L360.074 343.542C360.386 352.799 352.799 360.386 343.542 360.074L305.744 358.796C301.127 358.64 296.668 360.487 293.514 363.862L267.689 391.493C261.365 398.259 250.635 398.259 244.311 391.493L218.486 363.862C215.332 360.487 210.873 358.64 206.256 358.796L168.458 360.074C159.201 360.386 151.614 352.799 151.926 343.542L153.204 305.744C153.36 301.127 151.513 296.668 148.138 293.514L120.507 267.689C113.741 261.365 113.741 250.635 120.507 244.311L148.138 218.486C151.513 215.332 153.36 210.873 153.204 206.256L151.926 168.458C151.614 159.201 159.201 151.614 168.458 151.926L206.256 153.204C210.873 153.36 215.332 151.513 218.486 148.138L244.311 120.507Z" fill="url(#paint0_linear_350_18)" stroke="url(#paint1_linear_350_18)" stroke-width="11"/>
</g>
<defs>
<linearGradient id="paint0_linear_350_18" x1="256" y1="108" x2="256" y2="404" gradientUnits="userSpaceOnUse">
<stop stop-color="#F8F9FA"/>
<stop offset="1" stop-color="#495057"/>
</linearGradient>
<linearGradient id="paint1_linear_350_18" x1="256" y1="108" x2="256" y2="404" gradientUnits="userSpaceOnUse">
<stop stop-color="#F8F9FA"/>
<stop offset="1" stop-color="#495057"/>
</linearGradient>
</defs>
</svg>
