<svg width="512" height="512" viewBox="0 0 512 512" fill="none" xmlns="http://www.w3.org/2000/svg">
<path d="M326.048 398.978C328.528 398.65 330.767 400.49 330.927 402.986L331.58 413.18C331.66 414.425 332.274 415.575 333.264 416.334L341.372 422.547C343.357 424.069 343.64 426.953 341.988 428.831L335.241 436.501C334.417 437.438 334.038 438.685 334.202 439.922L335.542 450.048C335.87 452.528 334.03 454.767 331.534 454.927L321.34 455.58C320.095 455.66 318.945 456.274 318.186 457.264L311.973 465.372C310.451 467.357 307.567 467.64 305.689 465.988L298.019 459.241C297.082 458.417 295.835 458.039 294.598 458.202L284.472 459.542C281.992 459.87 279.752 458.03 279.593 455.534L278.94 445.34C278.86 444.095 278.246 442.945 277.256 442.186L269.148 435.973C267.163 434.451 266.88 431.567 268.532 429.689L275.278 422.019C276.102 421.082 276.481 419.835 276.318 418.598L274.978 408.472C274.65 405.992 276.49 403.752 278.986 403.593L289.18 402.94C290.425 402.86 291.575 402.246 292.334 401.256L298.547 393.148C300.068 391.163 302.953 390.88 304.831 392.532L312.501 399.278C313.438 400.102 314.685 400.481 315.922 400.318L326.048 398.978Z" stroke="url(#paint0_linear_510_2)" stroke-width="2.97093"/>
<rect x="145.868" y="311" width="62.6007" height="131.359" rx="31.3004" transform="rotate(33.1692 145.868 311)" stroke="url(#paint1_linear_510_2)" stroke-width="5.64433"/>
<rect x="36" y="133.048" width="112" height="112" transform="rotate(-26.5421 36 133.048)" stroke="url(#paint2_linear_510_2)" stroke-width="4.8125"/>
<path d="M305 108C305 62.7127 341.713 26 387 26V26C432.287 26 469 62.7127 469 108V108C469 153.287 432.287 190 387 190V190C341.713 190 305 153.287 305 108V108Z" stroke="url(#paint3_linear_510_2)" stroke-width="7.04687"/>
<path d="M444 329C444 320.163 451.163 313 460 313V313C468.837 313 476 320.163 476 329V329C476 337.837 468.837 345 460 345V345C451.163 345 444 337.837 444 329V329Z" stroke="url(#paint4_linear_510_2)" stroke-width="1.375"/>
<path d="M135.782 265L134.722 261.28H130.282L129.222 265H126.942L131.022 251.04H134.082L138.162 265H135.782ZM132.582 253.3H132.422L130.702 259.42H134.302L132.582 253.3ZM140.514 263.24H143.934V251.96H140.514V250.2H146.114V263.24H149.534V265H140.514V263.24ZM165.539 254.68H167.719V256.44H167.839C168.145 255.813 168.552 255.327 169.059 254.98C169.565 254.62 170.199 254.44 170.959 254.44C172.172 254.44 173.139 254.893 173.859 255.8C174.579 256.707 174.939 258.053 174.939 259.84C174.939 261.627 174.579 262.973 173.859 263.88C173.139 264.787 172.172 265.24 170.959 265.24C170.199 265.24 169.565 265.067 169.059 264.72C168.552 264.36 168.145 263.867 167.839 263.24H167.719V269H165.539V254.68ZM170.059 263.46C170.885 263.46 171.519 263.207 171.959 262.7C172.412 262.193 172.639 261.52 172.639 260.68V259C172.639 258.16 172.412 257.487 171.959 256.98C171.519 256.473 170.885 256.22 170.059 256.22C169.739 256.22 169.439 256.26 169.159 256.34C168.879 256.42 168.632 256.54 168.419 256.7C168.205 256.86 168.032 257.06 167.899 257.3C167.779 257.527 167.719 257.8 167.719 258.12V261.56C167.719 261.88 167.779 262.16 167.899 262.4C168.032 262.627 168.205 262.82 168.419 262.98C168.632 263.14 168.879 263.26 169.159 263.34C169.439 263.42 169.739 263.46 170.059 263.46ZM186.271 265C185.644 265 185.171 264.84 184.851 264.52C184.544 264.2 184.357 263.78 184.291 263.26H184.191C183.991 263.887 183.624 264.373 183.091 264.72C182.571 265.067 181.904 265.24 181.091 265.24C180.037 265.24 179.197 264.967 178.571 264.42C177.944 263.86 177.631 263.093 177.631 262.12C177.631 261.12 177.997 260.36 178.731 259.84C179.477 259.307 180.617 259.04 182.151 259.04H184.131V258.24C184.131 256.84 183.391 256.14 181.911 256.14C181.244 256.14 180.704 256.273 180.291 256.54C179.877 256.793 179.531 257.133 179.251 257.56L177.951 256.5C178.244 255.94 178.737 255.46 179.431 255.06C180.124 254.647 181.017 254.44 182.111 254.44C183.417 254.44 184.444 254.753 185.191 255.38C185.937 256.007 186.311 256.913 186.311 258.1V263.28H187.611V265H186.271ZM181.711 263.64C182.417 263.64 182.997 263.48 183.451 263.16C183.904 262.84 184.131 262.427 184.131 261.92V260.42H182.191C180.617 260.42 179.831 260.893 179.831 261.84V262.24C179.831 262.707 179.997 263.06 180.331 263.3C180.664 263.527 181.124 263.64 181.711 263.64ZM190.423 263.24H193.163V256.44H190.423V254.68H195.343V257.42H195.463C195.556 257.06 195.69 256.713 195.863 256.38C196.036 256.047 196.256 255.76 196.523 255.52C196.79 255.267 197.116 255.067 197.503 254.92C197.89 254.76 198.343 254.68 198.863 254.68H200.103V256.76H198.063C197.263 256.76 196.61 257 196.103 257.48C195.596 257.947 195.343 258.58 195.343 259.38V263.24H199.083V265H190.423V263.24ZM207.595 265.24C206.808 265.24 206.102 265.113 205.475 264.86C204.848 264.607 204.322 264.247 203.895 263.78C203.468 263.313 203.142 262.753 202.915 262.1C202.688 261.433 202.575 260.687 202.575 259.86C202.575 259.033 202.688 258.287 202.915 257.62C203.155 256.953 203.482 256.387 203.895 255.92C204.322 255.44 204.835 255.073 205.435 254.82C206.035 254.567 206.702 254.44 207.435 254.44C208.155 254.44 208.808 254.567 209.395 254.82C209.982 255.06 210.482 255.407 210.895 255.86C211.308 256.313 211.622 256.853 211.835 257.48C212.062 258.107 212.175 258.8 212.175 259.56V260.38H204.775V260.72C204.775 261.533 205.028 262.2 205.535 262.72C206.042 263.227 206.742 263.48 207.635 263.48C208.302 263.48 208.868 263.34 209.335 263.06C209.815 262.767 210.202 262.38 210.495 261.9L211.855 263.1C211.508 263.7 210.975 264.207 210.255 264.62C209.548 265.033 208.662 265.24 207.595 265.24ZM207.435 256.1C207.048 256.1 206.688 256.167 206.355 256.3C206.035 256.433 205.755 256.627 205.515 256.88C205.288 257.12 205.108 257.407 204.975 257.74C204.842 258.073 204.775 258.44 204.775 258.84V258.98H209.955V258.78C209.955 257.967 209.722 257.32 209.255 256.84C208.802 256.347 208.195 256.1 207.435 256.1ZM220.227 265.24C219.454 265.24 218.761 265.113 218.147 264.86C217.547 264.607 217.034 264.247 216.607 263.78C216.194 263.313 215.874 262.747 215.647 262.08C215.434 261.413 215.327 260.667 215.327 259.84C215.327 259.013 215.434 258.267 215.647 257.6C215.874 256.933 216.194 256.367 216.607 255.9C217.034 255.433 217.547 255.073 218.147 254.82C218.761 254.567 219.447 254.44 220.207 254.44C221.274 254.44 222.127 254.667 222.767 255.12C223.421 255.573 223.907 256.16 224.227 256.88L222.527 257.8C222.341 257.32 222.054 256.94 221.667 256.66C221.294 256.38 220.807 256.24 220.207 256.24C219.381 256.24 218.741 256.493 218.287 257C217.834 257.493 217.607 258.153 217.607 258.98V260.7C217.607 261.513 217.834 262.173 218.287 262.68C218.741 263.187 219.394 263.44 220.247 263.44C220.887 263.44 221.407 263.293 221.807 263C222.221 262.707 222.547 262.307 222.787 261.8L224.387 262.78C224.054 263.5 223.547 264.093 222.867 264.56C222.187 265.013 221.307 265.24 220.227 265.24ZM232.54 265.24C231.753 265.24 231.046 265.113 230.42 264.86C229.793 264.607 229.266 264.247 228.84 263.78C228.413 263.313 228.086 262.753 227.86 262.1C227.633 261.433 227.52 260.687 227.52 259.86C227.52 259.033 227.633 258.287 227.86 257.62C228.1 256.953 228.426 256.387 228.84 255.92C229.266 255.44 229.78 255.073 230.38 254.82C230.98 254.567 231.646 254.44 232.38 254.44C233.1 254.44 233.753 254.567 234.34 254.82C234.926 255.06 235.426 255.407 235.84 255.86C236.253 256.313 236.566 256.853 236.78 257.48C237.006 258.107 237.12 258.8 237.12 259.56V260.38H229.72V260.72C229.72 261.533 229.973 262.2 230.48 262.72C230.986 263.227 231.686 263.48 232.58 263.48C233.246 263.48 233.813 263.34 234.28 263.06C234.76 262.767 235.146 262.38 235.44 261.9L236.8 263.1C236.453 263.7 235.92 264.207 235.2 264.62C234.493 265.033 233.606 265.24 232.54 265.24ZM232.38 256.1C231.993 256.1 231.633 256.167 231.3 256.3C230.98 256.433 230.7 256.627 230.46 256.88C230.233 257.12 230.053 257.407 229.92 257.74C229.786 258.073 229.72 258.44 229.72 258.84V258.98H234.9V258.78C234.9 257.967 234.666 257.32 234.2 256.84C233.746 256.347 233.14 256.1 232.38 256.1ZM240.312 263.24H243.052V256.44H240.312V254.68H245.232V257.42H245.352C245.445 257.06 245.578 256.713 245.752 256.38C245.925 256.047 246.145 255.76 246.412 255.52C246.678 255.267 247.005 255.067 247.392 254.92C247.778 254.76 248.232 254.68 248.752 254.68H249.992V256.76H247.952C247.152 256.76 246.498 257 245.992 257.48C245.485 257.947 245.232 258.58 245.232 259.38V263.24H248.972V265H240.312V263.24ZM273.576 265C272.949 265 272.476 264.84 272.156 264.52C271.849 264.2 271.663 263.78 271.596 263.26H271.496C271.296 263.887 270.929 264.373 270.396 264.72C269.876 265.067 269.209 265.24 268.396 265.24C267.343 265.24 266.503 264.967 265.876 264.42C265.249 263.86 264.936 263.093 264.936 262.12C264.936 261.12 265.303 260.36 266.036 259.84C266.783 259.307 267.923 259.04 269.456 259.04H271.436V258.24C271.436 256.84 270.696 256.14 269.216 256.14C268.549 256.14 268.009 256.273 267.596 256.54C267.183 256.793 266.836 257.133 266.556 257.56L265.256 256.5C265.549 255.94 266.043 255.46 266.736 255.06C267.429 254.647 268.323 254.44 269.416 254.44C270.723 254.44 271.749 254.753 272.496 255.38C273.243 256.007 273.616 256.913 273.616 258.1V263.28H274.916V265H273.576ZM269.016 263.64C269.723 263.64 270.303 263.48 270.756 263.16C271.209 262.84 271.436 262.427 271.436 261.92V260.42H269.496C267.923 260.42 267.136 260.893 267.136 261.84V262.24C267.136 262.707 267.303 263.06 267.636 263.3C267.969 263.527 268.429 263.64 269.016 263.64ZM284.348 263.24H284.248C284.142 263.507 284.002 263.767 283.828 264.02C283.668 264.26 283.468 264.473 283.228 264.66C282.988 264.833 282.708 264.973 282.388 265.08C282.068 265.187 281.695 265.24 281.268 265.24C280.228 265.24 279.388 264.9 278.748 264.22C278.108 263.54 277.788 262.573 277.788 261.32V254.68H279.968V261C279.968 262.64 280.682 263.46 282.108 263.46C282.388 263.46 282.662 263.427 282.928 263.36C283.195 263.28 283.435 263.167 283.648 263.02C283.862 262.873 284.028 262.693 284.148 262.48C284.282 262.253 284.348 261.987 284.348 261.68V254.68H286.528V265H284.348V263.24ZM290.36 265V254.68H292.54V256.44H292.64C292.747 256.173 292.88 255.92 293.04 255.68C293.214 255.427 293.42 255.213 293.66 255.04C293.9 254.853 294.18 254.707 294.5 254.6C294.82 254.493 295.194 254.44 295.62 254.44C296.66 254.44 297.5 254.78 298.14 255.46C298.78 256.14 299.1 257.107 299.1 258.36V265H296.92V258.68C296.92 257.04 296.207 256.22 294.78 256.22C294.5 256.22 294.227 256.26 293.96 256.34C293.694 256.407 293.454 256.513 293.24 256.66C293.027 256.807 292.854 256.993 292.72 257.22C292.6 257.447 292.54 257.707 292.54 258V265H290.36ZM315.305 265V254.68H317.485V256.44H317.585C317.692 256.173 317.825 255.92 317.985 255.68C318.158 255.427 318.365 255.213 318.605 255.04C318.845 254.853 319.125 254.707 319.445 254.6C319.765 254.493 320.138 254.44 320.565 254.44C321.605 254.44 322.445 254.78 323.085 255.46C323.725 256.14 324.045 257.107 324.045 258.36V265H321.865V258.68C321.865 257.04 321.152 256.22 319.725 256.22C319.445 256.22 319.172 256.26 318.905 256.34C318.638 256.407 318.398 256.513 318.185 256.66C317.972 256.807 317.798 256.993 317.665 257.22C317.545 257.447 317.485 257.707 317.485 258V265H315.305ZM332.097 265.24C331.337 265.24 330.65 265.113 330.037 264.86C329.437 264.607 328.924 264.247 328.497 263.78C328.084 263.313 327.764 262.747 327.537 262.08C327.31 261.413 327.197 260.667 327.197 259.84C327.197 259.013 327.31 258.267 327.537 257.6C327.764 256.933 328.084 256.367 328.497 255.9C328.924 255.433 329.437 255.073 330.037 254.82C330.65 254.567 331.337 254.44 332.097 254.44C332.857 254.44 333.537 254.567 334.137 254.82C334.75 255.073 335.264 255.433 335.677 255.9C336.104 256.367 336.43 256.933 336.657 257.6C336.884 258.267 336.997 259.013 336.997 259.84C336.997 260.667 336.884 261.413 336.657 262.08C336.43 262.747 336.104 263.313 335.677 263.78C335.264 264.247 334.75 264.607 334.137 264.86C333.537 265.113 332.857 265.24 332.097 265.24ZM332.097 263.52C332.897 263.52 333.53 263.28 333.997 262.8C334.477 262.307 334.717 261.58 334.717 260.62V259.06C334.717 258.1 334.477 257.38 333.997 256.9C333.53 256.407 332.897 256.16 332.097 256.16C331.297 256.16 330.657 256.407 330.177 256.9C329.71 257.38 329.477 258.1 329.477 259.06V260.62C329.477 261.58 329.71 262.307 330.177 262.8C330.657 263.28 331.297 263.52 332.097 263.52ZM352.721 250.2H354.901V256.44H355.001C355.108 256.173 355.241 255.92 355.401 255.68C355.575 255.427 355.781 255.213 356.021 255.04C356.261 254.853 356.541 254.707 356.861 254.6C357.181 254.493 357.555 254.44 357.981 254.44C359.021 254.44 359.861 254.78 360.501 255.46C361.141 256.14 361.461 257.107 361.461 258.36V265H359.281V258.68C359.281 257.04 358.568 256.22 357.141 256.22C356.861 256.22 356.588 256.26 356.321 256.34C356.055 256.407 355.815 256.513 355.601 256.66C355.388 256.807 355.215 256.993 355.081 257.22C354.961 257.447 354.901 257.707 354.901 258V265H352.721V250.2ZM373.354 265C372.727 265 372.254 264.84 371.934 264.52C371.627 264.2 371.44 263.78 371.374 263.26H371.274C371.074 263.887 370.707 264.373 370.174 264.72C369.654 265.067 368.987 265.24 368.174 265.24C367.12 265.24 366.28 264.967 365.654 264.42C365.027 263.86 364.714 263.093 364.714 262.12C364.714 261.12 365.08 260.36 365.814 259.84C366.56 259.307 367.7 259.04 369.234 259.04H371.214V258.24C371.214 256.84 370.474 256.14 368.994 256.14C368.327 256.14 367.787 256.273 367.374 256.54C366.96 256.793 366.614 257.133 366.334 257.56L365.034 256.5C365.327 255.94 365.82 255.46 366.514 255.06C367.207 254.647 368.1 254.44 369.194 254.44C370.5 254.44 371.527 254.753 372.274 255.38C373.02 256.007 373.394 256.913 373.394 258.1V263.28H374.694V265H373.354ZM368.794 263.64C369.5 263.64 370.08 263.48 370.534 263.16C370.987 262.84 371.214 262.427 371.214 261.92V260.42H369.274C367.7 260.42 366.914 260.893 366.914 261.84V262.24C366.914 262.707 367.08 263.06 367.414 263.3C367.747 263.527 368.207 263.64 368.794 263.64ZM385.006 254.68H387.206L382.206 267C381.939 267.667 381.586 268.167 381.146 268.5C380.719 268.833 380.099 269 379.286 269H377.546V267.24H379.986L380.926 264.86L376.766 254.68H379.046L380.686 259L381.966 262.54H382.086L383.366 259L385.006 254.68ZM145.634 295.24C144.861 295.24 144.168 295.113 143.554 294.86C142.954 294.607 142.441 294.247 142.014 293.78C141.601 293.313 141.281 292.747 141.054 292.08C140.841 291.413 140.734 290.667 140.734 289.84C140.734 289.013 140.841 288.267 141.054 287.6C141.281 286.933 141.601 286.367 142.014 285.9C142.441 285.433 142.954 285.073 143.554 284.82C144.168 284.567 144.854 284.44 145.614 284.44C146.681 284.44 147.534 284.667 148.174 285.12C148.828 285.573 149.314 286.16 149.634 286.88L147.934 287.8C147.748 287.32 147.461 286.94 147.074 286.66C146.701 286.38 146.214 286.24 145.614 286.24C144.788 286.24 144.148 286.493 143.694 287C143.241 287.493 143.014 288.153 143.014 288.98V290.7C143.014 291.513 143.241 292.173 143.694 292.68C144.148 293.187 144.801 293.44 145.654 293.44C146.294 293.44 146.814 293.293 147.214 293C147.628 292.707 147.954 292.307 148.194 291.8L149.794 292.78C149.461 293.5 148.954 294.093 148.274 294.56C147.594 295.013 146.714 295.24 145.634 295.24ZM157.726 295.24C156.966 295.24 156.28 295.113 155.666 294.86C155.066 294.607 154.553 294.247 154.126 293.78C153.713 293.313 153.393 292.747 153.166 292.08C152.94 291.413 152.826 290.667 152.826 289.84C152.826 289.013 152.94 288.267 153.166 287.6C153.393 286.933 153.713 286.367 154.126 285.9C154.553 285.433 155.066 285.073 155.666 284.82C156.28 284.567 156.966 284.44 157.726 284.44C158.486 284.44 159.166 284.567 159.766 284.82C160.38 285.073 160.893 285.433 161.306 285.9C161.733 286.367 162.06 286.933 162.286 287.6C162.513 288.267 162.626 289.013 162.626 289.84C162.626 290.667 162.513 291.413 162.286 292.08C162.06 292.747 161.733 293.313 161.306 293.78C160.893 294.247 160.38 294.607 159.766 294.86C159.166 295.113 158.486 295.24 157.726 295.24ZM157.726 293.52C158.526 293.52 159.16 293.28 159.626 292.8C160.106 292.307 160.346 291.58 160.346 290.62V289.06C160.346 288.1 160.106 287.38 159.626 286.9C159.16 286.407 158.526 286.16 157.726 286.16C156.926 286.16 156.286 286.407 155.806 286.9C155.34 287.38 155.106 288.1 155.106 289.06V290.62C155.106 291.58 155.34 292.307 155.806 292.8C156.286 293.28 156.926 293.52 157.726 293.52ZM165.879 295V284.68H168.059V286.44H168.159C168.265 286.173 168.399 285.92 168.559 285.68C168.732 285.427 168.939 285.213 169.179 285.04C169.419 284.853 169.699 284.707 170.019 284.6C170.339 284.493 170.712 284.44 171.139 284.44C172.179 284.44 173.019 284.78 173.659 285.46C174.299 286.14 174.619 287.107 174.619 288.36V295H172.439V288.68C172.439 287.04 171.725 286.22 170.299 286.22C170.019 286.22 169.745 286.26 169.479 286.34C169.212 286.407 168.972 286.513 168.759 286.66C168.545 286.807 168.372 286.993 168.239 287.22C168.119 287.447 168.059 287.707 168.059 288V295H165.879ZM183.291 295C182.384 295 181.717 294.76 181.291 294.28C180.864 293.787 180.651 293.153 180.651 292.38V286.44H177.471V284.68H179.731C180.117 284.68 180.391 284.607 180.551 284.46C180.711 284.3 180.791 284.02 180.791 283.62V281.04H182.831V284.68H187.231V286.44H182.831V293.24H187.231V295H183.291ZM195.363 295.24C194.576 295.24 193.87 295.113 193.243 294.86C192.616 294.607 192.09 294.247 191.663 293.78C191.236 293.313 190.91 292.753 190.683 292.1C190.456 291.433 190.343 290.687 190.343 289.86C190.343 289.033 190.456 288.287 190.683 287.62C190.923 286.953 191.25 286.387 191.663 285.92C192.09 285.44 192.603 285.073 193.203 284.82C193.803 284.567 194.47 284.44 195.203 284.44C195.923 284.44 196.576 284.567 197.163 284.82C197.75 285.06 198.25 285.407 198.663 285.86C199.076 286.313 199.39 286.853 199.603 287.48C199.83 288.107 199.943 288.8 199.943 289.56V290.38H192.543V290.72C192.543 291.533 192.796 292.2 193.303 292.72C193.81 293.227 194.51 293.48 195.403 293.48C196.07 293.48 196.636 293.34 197.103 293.06C197.583 292.767 197.97 292.38 198.263 291.9L199.623 293.1C199.276 293.7 198.743 294.207 198.023 294.62C197.316 295.033 196.43 295.24 195.363 295.24ZM195.203 286.1C194.816 286.1 194.456 286.167 194.123 286.3C193.803 286.433 193.523 286.627 193.283 286.88C193.056 287.12 192.876 287.407 192.743 287.74C192.61 288.073 192.543 288.44 192.543 288.84V288.98H197.723V288.78C197.723 287.967 197.49 287.32 197.023 286.84C196.57 286.347 195.963 286.1 195.203 286.1ZM203.295 295V284.68H205.475V286.44H205.575C205.682 286.173 205.815 285.92 205.975 285.68C206.148 285.427 206.355 285.213 206.595 285.04C206.835 284.853 207.115 284.707 207.435 284.6C207.755 284.493 208.128 284.44 208.555 284.44C209.595 284.44 210.435 284.78 211.075 285.46C211.715 286.14 212.035 287.107 212.035 288.36V295H209.855V288.68C209.855 287.04 209.142 286.22 207.715 286.22C207.435 286.22 207.162 286.26 206.895 286.34C206.628 286.407 206.388 286.513 206.175 286.66C205.962 286.807 205.788 286.993 205.655 287.22C205.535 287.447 205.475 287.707 205.475 288V295H203.295ZM220.727 282.8C220.167 282.8 219.774 282.687 219.547 282.46C219.334 282.233 219.227 281.953 219.227 281.62V281.2C219.227 280.867 219.334 280.587 219.547 280.36C219.774 280.133 220.161 280.02 220.707 280.02C221.267 280.02 221.654 280.133 221.867 280.36C222.094 280.587 222.207 280.867 222.207 281.2V281.62C222.207 281.953 222.094 282.233 221.867 282.46C221.654 282.687 221.274 282.8 220.727 282.8ZM216.107 293.24H219.627V286.44H216.107V284.68H221.807V293.24H225.107V295H216.107V293.24ZM234.8 293.24H234.68C234.373 293.867 233.966 294.36 233.46 294.72C232.953 295.067 232.32 295.24 231.56 295.24C230.346 295.24 229.38 294.787 228.66 293.88C227.94 292.973 227.58 291.627 227.58 289.84C227.58 288.053 227.94 286.707 228.66 285.8C229.38 284.893 230.346 284.44 231.56 284.44C232.32 284.44 232.953 284.62 233.46 284.98C233.966 285.327 234.373 285.813 234.68 286.44H234.8V280.2H236.98V295H234.8V293.24ZM232.46 293.46C232.78 293.46 233.08 293.42 233.36 293.34C233.64 293.26 233.886 293.14 234.1 292.98C234.313 292.82 234.48 292.627 234.6 292.4C234.733 292.16 234.8 291.88 234.8 291.56V288.12C234.8 287.8 234.733 287.527 234.6 287.3C234.48 287.06 234.313 286.86 234.1 286.7C233.886 286.54 233.64 286.42 233.36 286.34C233.08 286.26 232.78 286.22 232.46 286.22C231.633 286.22 230.993 286.473 230.54 286.98C230.1 287.487 229.88 288.16 229.88 289V290.68C229.88 291.52 230.1 292.193 230.54 292.7C230.993 293.207 231.633 293.46 232.46 293.46ZM245.032 295.24C244.272 295.24 243.585 295.113 242.972 294.86C242.372 294.607 241.858 294.247 241.432 293.78C241.018 293.313 240.698 292.747 240.472 292.08C240.245 291.413 240.132 290.667 240.132 289.84C240.132 289.013 240.245 288.267 240.472 287.6C240.698 286.933 241.018 286.367 241.432 285.9C241.858 285.433 242.372 285.073 242.972 284.82C243.585 284.567 244.272 284.44 245.032 284.44C245.792 284.44 246.472 284.567 247.072 284.82C247.685 285.073 248.198 285.433 248.612 285.9C249.038 286.367 249.365 286.933 249.592 287.6C249.818 288.267 249.932 289.013 249.932 289.84C249.932 290.667 249.818 291.413 249.592 292.08C249.365 292.747 249.038 293.313 248.612 293.78C248.198 294.247 247.685 294.607 247.072 294.86C246.472 295.113 245.792 295.24 245.032 295.24ZM245.032 293.52C245.832 293.52 246.465 293.28 246.932 292.8C247.412 292.307 247.652 291.58 247.652 290.62V289.06C247.652 288.1 247.412 287.38 246.932 286.9C246.465 286.407 245.832 286.16 245.032 286.16C244.232 286.16 243.592 286.407 243.112 286.9C242.645 287.38 242.412 288.1 242.412 289.06V290.62C242.412 291.58 242.645 292.307 243.112 292.8C243.592 293.28 244.232 293.52 245.032 293.52ZM265.556 284.68H267.736V286.44H267.856C268.163 285.813 268.569 285.327 269.076 284.98C269.583 284.62 270.216 284.44 270.976 284.44C272.189 284.44 273.156 284.893 273.876 285.8C274.596 286.707 274.956 288.053 274.956 289.84C274.956 291.627 274.596 292.973 273.876 293.88C273.156 294.787 272.189 295.24 270.976 295.24C270.216 295.24 269.583 295.067 269.076 294.72C268.569 294.36 268.163 293.867 267.856 293.24H267.736V299H265.556V284.68ZM270.076 293.46C270.903 293.46 271.536 293.207 271.976 292.7C272.429 292.193 272.656 291.52 272.656 290.68V289C272.656 288.16 272.429 287.487 271.976 286.98C271.536 286.473 270.903 286.22 270.076 286.22C269.756 286.22 269.456 286.26 269.176 286.34C268.896 286.42 268.649 286.54 268.436 286.7C268.223 286.86 268.049 287.06 267.916 287.3C267.796 287.527 267.736 287.8 267.736 288.12V291.56C267.736 291.88 267.796 292.16 267.916 292.4C268.049 292.627 268.223 292.82 268.436 292.98C268.649 293.14 268.896 293.26 269.176 293.34C269.456 293.42 269.756 293.46 270.076 293.46ZM282.448 295.24C281.688 295.24 281.002 295.113 280.388 294.86C279.788 294.607 279.275 294.247 278.848 293.78C278.435 293.313 278.115 292.747 277.888 292.08C277.662 291.413 277.548 290.667 277.548 289.84C277.548 289.013 277.662 288.267 277.888 287.6C278.115 286.933 278.435 286.367 278.848 285.9C279.275 285.433 279.788 285.073 280.388 284.82C281.002 284.567 281.688 284.44 282.448 284.44C283.208 284.44 283.888 284.567 284.488 284.82C285.102 285.073 285.615 285.433 286.028 285.9C286.455 286.367 286.782 286.933 287.008 287.6C287.235 288.267 287.348 289.013 287.348 289.84C287.348 290.667 287.235 291.413 287.008 292.08C286.782 292.747 286.455 293.313 286.028 293.78C285.615 294.247 285.102 294.607 284.488 294.86C283.888 295.113 283.208 295.24 282.448 295.24ZM282.448 293.52C283.248 293.52 283.882 293.28 284.348 292.8C284.828 292.307 285.068 291.58 285.068 290.62V289.06C285.068 288.1 284.828 287.38 284.348 286.9C283.882 286.407 283.248 286.16 282.448 286.16C281.648 286.16 281.008 286.407 280.528 286.9C280.062 287.38 279.828 288.1 279.828 289.06V290.62C279.828 291.58 280.062 292.307 280.528 292.8C281.008 293.28 281.648 293.52 282.448 293.52ZM290.44 293.24H293.18V286.44H290.44V284.68H295.36V287.42H295.48C295.574 287.06 295.707 286.713 295.88 286.38C296.054 286.047 296.274 285.76 296.54 285.52C296.807 285.267 297.134 285.067 297.52 284.92C297.907 284.76 298.36 284.68 298.88 284.68H300.12V286.76H298.08C297.28 286.76 296.627 287 296.12 287.48C295.614 287.947 295.36 288.58 295.36 289.38V293.24H299.1V295H290.44V293.24ZM323.705 295C323.078 295 322.605 294.84 322.285 294.52C321.978 294.2 321.792 293.78 321.725 293.26H321.625C321.425 293.887 321.058 294.373 320.525 294.72C320.005 295.067 319.338 295.24 318.525 295.24C317.472 295.24 316.632 294.967 316.005 294.42C315.378 293.86 315.065 293.093 315.065 292.12C315.065 291.12 315.432 290.36 316.165 289.84C316.912 289.307 318.052 289.04 319.585 289.04H321.565V288.24C321.565 286.84 320.825 286.14 319.345 286.14C318.678 286.14 318.138 286.273 317.725 286.54C317.312 286.793 316.965 287.133 316.685 287.56L315.385 286.5C315.678 285.94 316.172 285.46 316.865 285.06C317.558 284.647 318.452 284.44 319.545 284.44C320.852 284.44 321.878 284.753 322.625 285.38C323.372 286.007 323.745 286.913 323.745 288.1V293.28H325.045V295H323.705ZM319.145 293.64C319.852 293.64 320.432 293.48 320.885 293.16C321.338 292.84 321.565 292.427 321.565 291.92V290.42H319.625C318.052 290.42 317.265 290.893 317.265 291.84V292.24C317.265 292.707 317.432 293.06 317.765 293.3C318.098 293.527 318.558 293.64 319.145 293.64ZM334.577 293.24H334.457C334.15 293.867 333.744 294.36 333.237 294.72C332.73 295.067 332.097 295.24 331.337 295.24C330.124 295.24 329.157 294.787 328.437 293.88C327.717 292.973 327.357 291.627 327.357 289.84C327.357 288.053 327.717 286.707 328.437 285.8C329.157 284.893 330.124 284.44 331.337 284.44C332.097 284.44 332.73 284.62 333.237 284.98C333.744 285.327 334.15 285.813 334.457 286.44H334.577V284.68H336.757V299H334.577V293.24ZM332.237 293.46C332.557 293.46 332.857 293.42 333.137 293.34C333.417 293.26 333.664 293.14 333.877 292.98C334.09 292.82 334.257 292.627 334.377 292.4C334.51 292.16 334.577 291.88 334.577 291.56V288.12C334.577 287.8 334.51 287.527 334.377 287.3C334.257 287.06 334.09 286.86 333.877 286.7C333.664 286.54 333.417 286.42 333.137 286.34C332.857 286.26 332.557 286.22 332.237 286.22C331.41 286.22 330.77 286.473 330.317 286.98C329.877 287.487 329.657 288.16 329.657 289V290.68C329.657 291.52 329.877 292.193 330.317 292.7C330.77 293.207 331.41 293.46 332.237 293.46ZM346.949 293.24H346.849C346.743 293.507 346.603 293.767 346.429 294.02C346.269 294.26 346.069 294.473 345.829 294.66C345.589 294.833 345.309 294.973 344.989 295.08C344.669 295.187 344.296 295.24 343.869 295.24C342.829 295.24 341.989 294.9 341.349 294.22C340.709 293.54 340.389 292.573 340.389 291.32V284.68H342.569V291C342.569 292.64 343.283 293.46 344.709 293.46C344.989 293.46 345.263 293.427 345.529 293.36C345.796 293.28 346.036 293.167 346.249 293.02C346.463 292.873 346.629 292.693 346.749 292.48C346.883 292.253 346.949 291.987 346.949 291.68V284.68H349.129V295H346.949V293.24ZM357.921 282.8C357.361 282.8 356.968 282.687 356.741 282.46C356.528 282.233 356.421 281.953 356.421 281.62V281.2C356.421 280.867 356.528 280.587 356.741 280.36C356.968 280.133 357.355 280.02 357.901 280.02C358.461 280.02 358.848 280.133 359.061 280.36C359.288 280.587 359.401 280.867 359.401 281.2V281.62C359.401 281.953 359.288 282.233 359.061 282.46C358.848 282.687 358.468 282.8 357.921 282.8ZM353.301 293.24H356.821V286.44H353.301V284.68H359.001V293.24H362.301V295H353.301V293.24ZM369.754 295.2C369.114 295.2 368.66 295.067 368.394 294.8C368.14 294.533 368.014 294.207 368.014 293.82V293.3C368.014 292.913 368.14 292.587 368.394 292.32C368.66 292.053 369.114 291.92 369.754 291.92C370.394 291.92 370.84 292.053 371.094 292.32C371.36 292.587 371.494 292.913 371.494 293.3V293.82C371.494 294.207 371.36 294.533 371.094 294.8C370.84 295.067 370.394 295.2 369.754 295.2Z" fill="#F8F9FA"/>
<defs>
<linearGradient id="paint0_linear_510_2" x1="330.632" y1="398.372" x2="279.888" y2="460.148" gradientUnits="userSpaceOnUse">
<stop stop-color="#F8F9FA"/>
<stop offset="1" stop-color="#495057"/>
</linearGradient>
<linearGradient id="paint1_linear_510_2" x1="177.169" y1="311" x2="177.169" y2="442.359" gradientUnits="userSpaceOnUse">
<stop stop-color="#F8F9FA"/>
<stop offset="1" stop-color="#495057"/>
</linearGradient>
<linearGradient id="paint2_linear_510_2" x1="92" y1="133.048" x2="92" y2="245.048" gradientUnits="userSpaceOnUse">
<stop stop-color="#F8F9FA"/>
<stop offset="1" stop-color="#495057"/>
</linearGradient>
<linearGradient id="paint3_linear_510_2" x1="411.771" y1="7.63542" x2="411.771" y2="171.635" gradientUnits="userSpaceOnUse">
<stop stop-color="#F8F9FA"/>
<stop offset="1" stop-color="#495057"/>
</linearGradient>
<linearGradient id="paint4_linear_510_2" x1="464.833" y1="309.417" x2="464.833" y2="341.417" gradientUnits="userSpaceOnUse">
<stop stop-color="#F8F9FA"/>
<stop offset="1" stop-color="#495057"/>
</linearGradient>
</defs>
</svg>
